<svg id="logo" xmlns="http://www.w3.org/2000/svg" xmlns:xlink="http://www.w3.org/1999/xlink" width="178.522" height="56.029" viewBox="0 0 178.522 56.029">
  <defs>
    <clipPath id="clip-path">
      <rect id="Rectangle_2" data-name="Rectangle 2" width="178.522" height="56.029" transform="translate(0 0)" fill="none"/>
    </clipPath>
  </defs>
  <g id="Group_1" data-name="Group 1" transform="translate(0 0)" clip-path="url(#clip-path)">
    <path id="Path_1" data-name="Path 1" d="M58.408,39.442H59.1v4.909h-.65v-.99a4.688,4.688,0,0,1-3.1,1.06,4.82,4.82,0,0,1-4.964-5.007,4.963,4.963,0,0,1,5.191-5.036,4.84,4.84,0,0,1,3.565,1.358l-.453.481a4.175,4.175,0,0,0-3.1-1.175,4.313,4.313,0,0,0-4.483,4.372A4.2,4.2,0,0,0,55.4,43.771a4.268,4.268,0,0,0,3.013-1.189Z" fill="#000"/>
    <path id="Path_2" data-name="Path 2" d="M61.237,40.658a3.692,3.692,0,1,1,3.692,3.749,3.6,3.6,0,0,1-3.692-3.749m6.663,0a2.974,2.974,0,1,0-2.971,3.112A2.929,2.929,0,0,0,67.9,40.658" fill="#000"/>
    <path id="Path_3" data-name="Path 3" d="M78.169,40.658a3.579,3.579,0,0,1-3.648,3.749,3.3,3.3,0,0,1-3.028-1.8v1.74h-.68v-10.5h.708v4.795a3.307,3.307,0,0,1,3-1.74,3.571,3.571,0,0,1,3.648,3.749m-.706,0a2.981,2.981,0,1,0-2.985,3.112,2.941,2.941,0,0,0,2.985-3.112" fill="#000"/>
    <path id="Path_4" data-name="Path 4" d="M80.136,34.6a.583.583,0,0,1,.58-.58.573.573,0,1,1-.58.58m.226,2.362h.707V44.35h-.707Z" fill="#000"/>
    <path id="Path_5" data-name="Path 5" d="M89.444,42.738l.41.467a3.515,3.515,0,0,1-2.787,1.2,3.636,3.636,0,0,1-3.819-3.748,3.534,3.534,0,0,1,3.593-3.749,3.438,3.438,0,0,1,3.466,3.437l-6.239,1.217a3.182,3.182,0,0,0,5.376,1.174m-5.5-2.136c0,.141.014.3.028.439l5.631-1.1a2.753,2.753,0,0,0-2.759-2.4,2.87,2.87,0,0,0-2.9,3.07" fill="#000"/>
    <path id="Path_6" data-name="Path 6" d="M95.994,36.909V37.6c-.057,0-.113-.014-.17-.014-1.641,0-2.617,1.089-2.617,2.914V44.35H92.5V36.966h.679v1.612a2.8,2.8,0,0,1,2.815-1.669" fill="#000"/>
    <path id="Path_7" data-name="Path 7" d="M104.552,40.036v4.315h-.707V40.093a2.237,2.237,0,0,0-2.391-2.547,2.635,2.635,0,0,0-2.8,2.872v3.933h-.707V36.966h.679v1.6a3.046,3.046,0,0,1,2.928-1.655,2.8,2.8,0,0,1,3,3.126" fill="#000"/>
    <path id="Path_8" data-name="Path 8" d="M106.674,40.658a3.692,3.692,0,1,1,3.692,3.749,3.6,3.6,0,0,1-3.692-3.749m6.663,0a2.974,2.974,0,1,0-2.971,3.112,2.929,2.929,0,0,0,2.971-3.112" fill="#000"/>
    <path id="Path_9" data-name="Path 9" d="M126.45,33.854v10.5h-.693V42.61a3.275,3.275,0,0,1-3.027,1.8,3.75,3.75,0,0,1,0-7.5,3.31,3.31,0,0,1,3.013,1.769V33.854Zm-.707,6.8a2.974,2.974,0,1,0-2.971,3.112,2.929,2.929,0,0,0,2.971-3.112" fill="#000"/>
    <path id="Path_10" data-name="Path 10" d="M134.825,42.738l.41.467a3.515,3.515,0,0,1-2.787,1.2,3.636,3.636,0,0,1-3.819-3.748,3.534,3.534,0,0,1,3.593-3.749,3.438,3.438,0,0,1,3.466,3.437l-6.239,1.217a3.182,3.182,0,0,0,5.376,1.174m-5.5-2.136c0,.141.014.3.028.439l5.631-1.1a2.753,2.753,0,0,0-2.759-2.4,2.87,2.87,0,0,0-2.9,3.07" fill="#000"/>
    <path id="Path_11" data-name="Path 11" d="M144.953,43.883a2.239,2.239,0,0,1-1.514.523,1.831,1.831,0,0,1-2.008-2.008V35.353h.707v1.612h2.348v.609h-2.348v4.753c0,.948.467,1.471,1.372,1.471a1.7,1.7,0,0,0,1.146-.41Z" fill="#000"/>
    <path id="Path_12" data-name="Path 12" d="M145.844,40.658a3.692,3.692,0,1,1,3.692,3.749,3.6,3.6,0,0,1-3.692-3.749m6.663,0a2.974,2.974,0,1,0-2.971,3.112,2.929,2.929,0,0,0,2.971-3.112" fill="#000"/>
    <path id="Path_13" data-name="Path 13" d="M161.985,33.854v10.5h-.693V42.61a3.275,3.275,0,0,1-3.027,1.8,3.75,3.75,0,0,1,0-7.5,3.31,3.31,0,0,1,3.013,1.769V33.854Zm-.707,6.8a2.974,2.974,0,1,0-2.971,3.112,2.929,2.929,0,0,0,2.971-3.112" fill="#000"/>
    <path id="Path_14" data-name="Path 14" d="M164.164,40.658a3.692,3.692,0,1,1,3.692,3.749,3.6,3.6,0,0,1-3.692-3.749m6.663,0a2.974,2.974,0,1,0-2.971,3.112,2.929,2.929,0,0,0,2.971-3.112" fill="#000"/>
    <path id="Path_15" data-name="Path 15" d="M172.651,43.459l.325-.566a4.3,4.3,0,0,0,2.66.891c1.556,0,2.178-.551,2.178-1.386,0-2.15-4.894-.566-4.894-3.466,0-1.117.933-2.023,2.8-2.023a4.533,4.533,0,0,1,2.532.722l-.325.566a3.8,3.8,0,0,0-2.221-.665c-1.443,0-2.08.594-2.08,1.386,0,2.221,4.9.651,4.9,3.466,0,1.2-1.033,2.023-2.914,2.023a4.631,4.631,0,0,1-2.957-.948" fill="#000"/>
    <path id="Path_16" data-name="Path 16" d="M48.75,21.871c0-4.627,3.541-7.908,8.364-7.908a8.043,8.043,0,0,1,6.539,2.868l-2.737,2.477a4.5,4.5,0,0,0-3.585-1.782A4.078,4.078,0,0,0,53.1,21.871a4.078,4.078,0,0,0,4.236,4.345,4.5,4.5,0,0,0,3.585-1.782l2.737,2.477a8.043,8.043,0,0,1-6.539,2.868c-4.823,0-8.364-3.281-8.364-7.908" fill="#000"/>
    <path id="Path_17" data-name="Path 17" d="M80.033,14.267V29.474h-4.3V23.543H69.866v5.931h-4.3V14.267h4.3V19.98h5.866V14.267Z" fill="#000"/>
    <path id="Path_18" data-name="Path 18" d="M93.264,26.52h-6.43l-1.195,2.954H81.25l6.713-15.207H92.2l6.735,15.207H94.459ZM92,23.348l-1.955-4.866-1.955,4.866Z" fill="#000"/>
    <path id="Path_19" data-name="Path 19" d="M99.151,21.871c0-4.627,3.541-7.908,8.364-7.908a8.043,8.043,0,0,1,6.539,2.868l-2.737,2.477a4.5,4.5,0,0,0-3.585-1.782,4.078,4.078,0,0,0-4.236,4.345,4.078,4.078,0,0,0,4.236,4.345,4.5,4.5,0,0,0,3.585-1.782l2.737,2.477a8.043,8.043,0,0,1-6.539,2.868c-4.823,0-8.364-3.281-8.364-7.908" fill="#000"/>
    <path id="Path_20" data-name="Path 20" d="M114.858,21.871c0-4.562,3.585-7.908,8.451-7.908s8.451,3.346,8.451,7.908-3.585,7.908-8.451,7.908-8.451-3.346-8.451-7.908m12.557,0a4.113,4.113,0,1,0-8.212,0,4.113,4.113,0,1,0,8.212,0" fill="#000"/>
    <path id="Path_21" data-name="Path 21" d="M20.139,47.723a6.5,6.5,0,0,1-2.816.1,20.934,20.934,0,0,0-2.8-.179l-.146.808a7.129,7.129,0,0,0,3.258,1.85v.139a2.139,2.139,0,0,0,1.539-.6.913.913,0,0,0-.038-.122c.014.032.021.066.034.094l.006.012a3.954,3.954,0,0,0,1.556-1.373c.235-.023.632-.047.812-.053a6.259,6.259,0,0,1-2.342,1.669v.257a8,8,0,0,0,3.445-1.883l-.145-.9a9.678,9.678,0,0,0-2.367.183m-2.5,2.306v.013a6.487,6.487,0,0,1-2.447-1.567c.194,0,.8,0,1,.011a3.942,3.942,0,0,0,1.48,1.307.791.791,0,0,0-.037.236m1.419-.459a.1.1,0,0,0,.02.027.793.793,0,0,0-.657-.364.773.773,0,0,0-.611.3,4.947,4.947,0,0,1-.975-.989,8.458,8.458,0,0,0,3.248-.018,4.748,4.748,0,0,1-1.025,1.039" fill="#000" fill-rule="evenodd"/>
    <path id="Path_22" data-name="Path 22" d="M19.2,50.873a.8.8,0,0,1-.02.153.863.863,0,0,0,.017-.153V50.8a2.465,2.465,0,0,1-1.554.148c0-.008,0-.014,0-.025a9.329,9.329,0,0,1-5.834,2.4l.31,1.086a10.889,10.889,0,0,0,5.666-3.075.735.735,0,0,0,.277.246,10.748,10.748,0,0,1-5.734,3.553l.26.9s2.6-.1,5.836-4.365a.914.914,0,0,0,.239-.035c3.247,4.3,5.869,4.4,5.869,4.4l.232-.817a10.892,10.892,0,0,1-5.805-3.767.726.726,0,0,0,.14-.188l-.015.028c2.092,2.548,5.953,2.982,5.953,2.982l.273-.945A10.055,10.055,0,0,1,19.2,50.705Z" fill="#000" fill-rule="evenodd"/>
    <path id="Path_23" data-name="Path 23" d="M20.4,13.357a5.3,5.3,0,0,0,1.187-.638,2.809,2.809,0,0,0,.625.655,4.565,4.565,0,0,0,1.362.6,1.155,1.155,0,0,1,.758.791,2.073,2.073,0,0,0-.593-1.4,1.868,1.868,0,0,1-.7-1.132s-.177-.68-.733-.637c0,0,.306.6.439.913a1.714,1.714,0,0,0,.652.985,2.045,2.045,0,0,1-1.2-.664c-.513-.579-.565-.513-.565-.513a4.932,4.932,0,0,1-1.861.928,10.192,10.192,0,0,0-1.347-.09,10.308,10.308,0,0,0-1.156.069,4.893,4.893,0,0,1-1.764-.895s-.055-.057-.551.5a2.05,2.05,0,0,1-1.2.663,1.73,1.73,0,0,0,.651-.985c.127-.316.439-.912.439-.912-.557-.043-.734.637-.734.637a1.876,1.876,0,0,1-.7,1.132,2.08,2.08,0,0,0-.6,1.4,1.157,1.157,0,0,1,.759-.792,4.6,4.6,0,0,0,1.364-.6,2.813,2.813,0,0,0,.613-.641,5.315,5.315,0,0,0,1.083.593C10.381,14.443,5.563,21.337,5.563,29.671c0,7.553,3.955,13.921,9.356,15.882-.024-.008-.047-.013-.072-.022l-.156,1.176a14.806,14.806,0,0,1,2.231.062,5.931,5.931,0,0,0,2.669.095,10.624,10.624,0,0,1,2.8-.153l-.2-1.247c5.272-2.063,9.107-8.354,9.107-15.793,0-8.251-4.721-15.095-10.89-16.314m-8.2,9.1c0-.009,0-.011.009-.023A2.815,2.815,0,0,1,14.679,20.7a5.791,5.791,0,0,1,2.1.046A3.178,3.178,0,0,0,16,20.527H15.98a.048.048,0,0,1-.03-.045.171.171,0,0,1,0-.024l.012-.009c.014-.016.028-.032.046-.049a.922.922,0,0,1,.357-.2,2.313,2.313,0,0,0-.616-.082h-.071a1.643,1.643,0,0,0-.413.054l-.006.01h-.015a.052.052,0,0,1-.044-.049v-.009l.011-.013a.774.774,0,0,1,.135-.227.047.047,0,0,0-.021-.012,1.855,1.855,0,0,0-.647.154.018.018,0,0,1-.017.01l-.007,0A.047.047,0,0,1,14.611,20v-.012c.005,0,.006-.011.008-.016a.629.629,0,0,1,.035-.068,1.162,1.162,0,0,1,.2-.279,2.887,2.887,0,0,0-.9-.279l-.013,0a.055.055,0,0,1-.032-.044.041.041,0,0,1,.012-.033.039.039,0,0,0,.015-.012,2.241,2.241,0,0,1,2.382.1,4.61,4.61,0,0,1,1.206.929c.03-.038.056-.074.082-.11a2.326,2.326,0,0,0-.339-.512c-.008,0-.008,0-.011-.01a.047.047,0,0,1,0-.024c0-.023.007-.036.031-.04l.007,0h.055a.772.772,0,0,1,.35.078,2.553,2.553,0,0,0-.356-.417.268.268,0,0,0-.052-.04A1.46,1.46,0,0,0,17,19c-.005,0-.008-.006-.012-.008a.038.038,0,0,1-.018-.03.048.048,0,0,1,.018-.038A.147.147,0,0,0,17,18.917a.8.8,0,0,1,.207-.062c0-.01,0-.016-.006-.019a1.74,1.74,0,0,0-.515-.278h0a.04.04,0,0,1-.023-.04.048.048,0,0,1,.015-.038s.009,0,.018-.008a.365.365,0,0,0,.047-.014.9.9,0,0,1,.3-.07,2.673,2.673,0,0,0-.423-.7s-.007,0-.011-.013-.006-.013-.006-.022a.047.047,0,0,1,.043-.046.026.026,0,0,1,.018,0,1.992,1.992,0,0,1,1.505,1.449,4.229,4.229,0,0,1,.191.683h.075a3.689,3.689,0,0,1,.186-.682,1.994,1.994,0,0,1,1.508-1.449.02.02,0,0,1,.014,0,.048.048,0,0,1,.046.046c0,.009,0,.01-.006.022s-.008.01-.011.017a2.741,2.741,0,0,0-.425.695.9.9,0,0,1,.3.07.41.41,0,0,0,.05.014.044.044,0,0,0,.015.008.043.043,0,0,1,.021.038.04.04,0,0,1-.026.04.028.028,0,0,1-.012,0,1.624,1.624,0,0,0-.507.273.026.026,0,0,0-.008.019.715.715,0,0,1,.21.065s.01,0,.013.006a.041.041,0,0,1,.018.038.032.032,0,0,1-.018.03.016.016,0,0,1-.011.008,1.524,1.524,0,0,0-.3.2.4.4,0,0,0-.05.04,2.553,2.553,0,0,0-.356.417.773.773,0,0,1,.351-.078h.044a.049.049,0,0,1,.049.043.033.033,0,0,1-.007.025l-.01.009a2.455,2.455,0,0,0-.305.441,1.6,1.6,0,0,1,.1.126,4.681,4.681,0,0,1,1.154-.874,2.232,2.232,0,0,1,2.381-.1.048.048,0,0,0,.017.011.044.044,0,0,1,.015.031.062.062,0,0,1-.032.044.058.058,0,0,0-.022,0,3,3,0,0,0-.9.279,1.212,1.212,0,0,1,.207.279.629.629,0,0,1,.035.068l.008.016V20a.045.045,0,0,1-.043.046h-.012s-.011,0-.014-.01a1.927,1.927,0,0,0-.651-.154c-.006,0-.011.009-.019.012a.974.974,0,0,1,.137.227.054.054,0,0,1,.008.021h0a.05.05,0,0,1-.042.05.031.031,0,0,1-.024-.011,1.646,1.646,0,0,0-.408-.054h-.078a2.309,2.309,0,0,0-.611.082.985.985,0,0,1,.359.2l.044.049.01.009a.033.033,0,0,1,.007.024.048.048,0,0,1-.031.045h-.019a3.025,3.025,0,0,0-.775.216,5.778,5.778,0,0,1,2.1-.046,2.813,2.813,0,0,1,2.462,1.738.055.055,0,0,0,.011.023v0a.049.049,0,0,1-.05.044.065.065,0,0,0-.018,0h0a3.86,3.86,0,0,0-1.145-.431,1.568,1.568,0,0,1-.012.441c-.009.04-.014.086-.025.129,0,0,0,.008-.006.009a.037.037,0,0,1-.042.032.04.04,0,0,1-.032-.014.042.042,0,0,1,0-.022,2.248,2.248,0,0,0-.547-.667.065.065,0,0,1-.032-.006,1.215,1.215,0,0,1-.038.348c0,.006,0,.017-.01.024a.042.042,0,0,1-.034.024.062.062,0,0,1-.031-.013c-.007,0-.01-.008-.01-.015a2.384,2.384,0,0,0-.377-.389.8.8,0,0,0-.076-.053,2.518,2.518,0,0,0-.681-.382,1.029,1.029,0,0,1,.208.462.433.433,0,0,1,.016.106v.021a.049.049,0,0,1-.046.041.048.048,0,0,0-.014-.009c-.009,0-.01,0-.015-.007a3.907,3.907,0,0,0-.93-.385,6.554,6.554,0,0,1,1.638,1.138,3.072,3.072,0,0,1,1.124,3.1.031.031,0,0,1,0,.014.047.047,0,0,1-.044.026c-.013,0-.023-.01-.035-.026l0-.005a4.131,4.131,0,0,0-.764-1.1,1.709,1.709,0,0,1-.278.387c-.036.034-.075.07-.115.1,0,.008,0,.008-.013.011a.037.037,0,0,1-.022.009.046.046,0,0,1-.044-.04v-.014A2.475,2.475,0,0,0,22,24.4c-.009-.012-.015-.02-.026-.02a1.14,1.14,0,0,1-.26.29c0,.012-.009.013-.014.019h-.021a.044.044,0,0,1-.039-.026c0-.012-.006-.018-.006-.031a2.353,2.353,0,0,0-.1-.582c-.012-.03-.021-.066-.032-.095a3.275,3.275,0,0,0-.375-.765,1.234,1.234,0,0,1-.1.55.948.948,0,0,1-.059.107s-.008.007-.01.012a.04.04,0,0,1-.033.015.037.037,0,0,1-.033-.022.019.019,0,0,1-.009-.015,5.156,5.156,0,0,0-1.131-1.488c-.072-.066-.145-.137-.216-.2a1.53,1.53,0,0,1-.342.547,1.137,1.137,0,0,1,.024.231,1.16,1.16,0,0,1-.366.876c.006.506.05,3.379.09,5.58h.006v2.6a6.271,6.271,0,0,0-.907-.019l-.027-2.895C18,26.752,17.991,23.879,18,23.792h0v-.006a1.174,1.174,0,0,1-.344-.859,2.11,2.11,0,0,1,.022-.243,1.639,1.639,0,0,1-.352-.6c-.1.085-.195.176-.294.27A5.169,5.169,0,0,0,15.9,23.837v.015a.047.047,0,0,1-.042.022.04.04,0,0,1-.029-.012c0-.008-.008-.01-.01-.015a.983.983,0,0,1-.062-.107,1.263,1.263,0,0,1-.1-.55,3.356,3.356,0,0,0-.375.765.99.99,0,0,1-.034.095,2.5,2.5,0,0,0-.1.591l0,0,0,.018a.05.05,0,0,1-.043.026h-.015a.026.026,0,0,1-.023-.02,1.107,1.107,0,0,1-.256-.29.035.035,0,0,0-.027.02,2.5,2.5,0,0,0-.07.955l0,.014a.046.046,0,0,1-.049.04.026.026,0,0,1-.018-.005c-.01,0-.017-.007-.018-.015a1.287,1.287,0,0,1-.107-.1,1.613,1.613,0,0,1-.282-.387,3.953,3.953,0,0,0-.76,1.1.012.012,0,0,1-.009.005.041.041,0,0,1-.038.026A.042.042,0,0,1,13.4,26a.056.056,0,0,1-.008-.022,3.072,3.072,0,0,1,1.124-3.1,6.629,6.629,0,0,1,1.642-1.138,3.881,3.881,0,0,0-.931.385s-.008,0-.011.007H15.2a.044.044,0,0,1-.042-.033v-.021c0-.031.006-.068.012-.106a1.083,1.083,0,0,1,.212-.462,2.424,2.424,0,0,0-.68.382.528.528,0,0,0-.075.053,2.606,2.606,0,0,0-.381.393s-.007,0-.009.011a.059.059,0,0,1-.03.013.047.047,0,0,1-.038-.024.109.109,0,0,1,0-.024,1.06,1.06,0,0,1-.041-.348.074.074,0,0,1-.035.006,2.2,2.2,0,0,0-.541.67s-.005.011-.005.015a.05.05,0,0,1-.038.018.042.042,0,0,1-.039-.028.021.021,0,0,1,0-.013.817.817,0,0,1-.028-.129,1.43,1.43,0,0,1-.011-.441,4.042,4.042,0,0,0-1.143.425c0,.006,0,.007-.011.007l-.016,0a.045.045,0,0,1-.044-.041Zm8.607,10.265a.792.792,0,0,0-.184-.153s2.681-1.918,3.8-1.918c.552-.033.943.585.659.765-.082.056-.3.09-.668-.162a1.178,1.178,0,0,0-1.038.006c-.429.235-2.32,1.306-2.568,1.462m2.13-1.037s.52.7.476.785l-2.2,1.238a4.669,4.669,0,0,0-.276-.812Zm-2.305,1.288c.316.436.233,1.166.425,1.049s.668-.4.668-.4a9.161,9.161,0,0,1,2.918-1.288c.86.019.8.828.609.883-.435.119-.227-.2-.7-.351s-2.023.615-3.06,1.178c-.466.253-.727.478-.934.555-.119-.1-.109-.327-.152-.5-.136-.475-.431-.762-.6-.724s.229.41.4.768c.114.235.044.337-.019.383a2.528,2.528,0,0,1-.386-.53,2.635,2.635,0,0,0-2.493-1.155c-.9-.041-2.074-.052-2.686-.066s-1.122-.208-1.244-.7c-.131-.54,0-.789.235-.752.67.1.061,1.01.95,1.109a12.79,12.79,0,0,0,2.619-.166c.754-.152,2.619-.243,3.449.707M19.51,35.693a.371.371,0,0,0-.206.29L17.861,36a3.59,3.59,0,0,1-1.882-2.253l3.3.086a1.18,1.18,0,0,1,.246.261c.755,1.113.464,1.278-.015,1.6M21.9,45.57c.088-.031.177-.062.264-.1-.038.016-.127.05-.264.1m-3.457.218c-6.9,0-12.5-7.181-12.5-16.034,0-.121,0-.251.006-.372h11.78l0,2.6c-.245.022-.5.054-.787.1-2.519.442-2.586-.011-2.586-.011s-.009-1.039-.821-1-.61,1.166-.033,1.59c.423.309.7.407,1.872.372a8.257,8.257,0,0,1,3.575.578l-3.06-.031s-.25-.018-.15.306a5.468,5.468,0,0,0,.269.636c-1.173-.015-6.514-.06-8.613.182.043.169.088.34.132.5.63-.025,5.534-.212,8.848-.019a4.339,4.339,0,0,0,.64.829,47.662,47.662,0,0,0-9.181.162c.07.206.149.416.228.621A63.719,63.719,0,0,1,17.4,36.31h.1c.273.008.546.019.82.03,2.824.721,6.592,4.337,7.492,5.236.1-.1.187-.2.281-.305-1.2-1.712-6.289-5.074-6.289-5.074,2.587.542,6.013,3.863,6.716,4.565.137-.174.272-.35.405-.533-1.441-1.571-6.391-4.585-6.391-4.585,2.633.7,5.811,3.453,6.65,4.217.107-.158.21-.319.314-.481-1.507-1.811-6.584-4.369-6.584-4.369,3.006.717,6.089,3.191,6.885,3.862.094-.164.181-.326.268-.494a53.771,53.771,0,0,0-5.81-3.53c1.461.162,5.508,2.686,6.062,3.03.059-.118.113-.239.165-.365A27.585,27.585,0,0,0,24.2,35.073a11.965,11.965,0,0,1,4.456,2.072c.052-.124.1-.244.144-.36a14.185,14.185,0,0,0-2.356-1.312,6.077,6.077,0,0,1,2.467,1.014c.064-.166.122-.324.178-.492l-.126-.067c-2.786-1.362-6.485-1.322-8.007-1.241.53-.394,3.407-2.043,3.6-1.543.206.409.375.35.621.31a.6.6,0,0,0,.381-.883c-.3-.545-1.084-.463-1.765-.156l-.554-.894s.63-.367,1.052-.117,1,.463,1.052-.143-.695-1.111-1.817-.6a29.667,29.667,0,0,0-3.069,1.783,2.786,2.786,0,0,0-1.223-.43l-.005-2.636h11.7v.372c0,8.853-5.593,16.034-12.5,16.034" fill="#000" fill-rule="evenodd"/>
    <path id="Path_24" data-name="Path 24" d="M16.526,44.758s4.01.9,6.931-1.448c0,0-.283-.447-6.931,1.448" fill="#000" fill-rule="evenodd"/>
    <path id="Path_25" data-name="Path 25" d="M13.581,43.622a10.238,10.238,0,0,0,1.742.814c3.165-1.42,10.183-2.637,10.3-2.656h0c-.093,0-4.407-.243-12.043,1.843" fill="#000" fill-rule="evenodd"/>
    <path id="Path_26" data-name="Path 26" d="M11.62,42.154a11.924,11.924,0,0,0,1.3,1.047A45.9,45.9,0,0,1,24.457,40.77s-2.2-.8-12.837,1.384" fill="#000" fill-rule="evenodd"/>
    <path id="Path_27" data-name="Path 27" d="M10.281,40.707q.411.514.861.977a54.94,54.94,0,0,1,11.94-1.958s-1.991-1.053-12.8.981" fill="#000" fill-rule="evenodd"/>
    <path id="Path_28" data-name="Path 28" d="M21.561,38.8s-2.385-1.054-12.313.414c.183.313.379.612.586.9A49.488,49.488,0,0,1,21.561,38.8" fill="#000" fill-rule="evenodd"/>
    <path id="Path_29" data-name="Path 29" d="M19.994,37.685s-3.143-1.231-11.547.019c.115.245.23.482.353.72a49.3,49.3,0,0,1,11.194-.739" fill="#000" fill-rule="evenodd"/>
    <path id="Path_30" data-name="Path 30" d="M11.419,7.527a2.092,2.092,0,0,0-1.388.621,1.185,1.185,0,0,1,1.1-.067,5.608,5.608,0,0,0,1.539.434L10.217,9.737l3.074-.122c-.041.271-.8.771-1.494,1.029a2.082,2.082,0,0,0-1,1.145,1.159,1.159,0,0,1,.97-.514A2.5,2.5,0,0,0,14.285,10.2a2.9,2.9,0,0,0-.957.429,1.766,1.766,0,0,1-1.246.245,2.936,2.936,0,0,0,1.363-.808c.22-.259.58-.782.58-.782l-2.218.026,2.053-1.14s-.228-.165-1-.088a2.188,2.188,0,0,1-1.282-.228A3.027,3.027,0,0,0,13.15,7.7c.314-.146.859-.472.859-.472l-1.962-.938L14.4,6.254S14.273,6,13.554,5.7a2.161,2.161,0,0,1-1.021-.808,2.994,2.994,0,0,0,1.461.606,8.432,8.432,0,0,0,.9-.022L13.466,3.81l2.128.992s0-.284-.516-.861a2.188,2.188,0,0,1-.568-1.17,3.013,3.013,0,0,0,1.05,1.178,6.351,6.351,0,0,0,.744.327L15.81,2.191l1.351,1.685s.129-.246-.081-.992a1.914,1.914,0,0,1,.072-1.3,3.013,3.013,0,0,0,.421,1.526,6.157,6.157,0,0,1,.409.733l.607-2.2.431,2.121s.284-.4.49-.677a2.918,2.918,0,0,0,.5-1.492,1.871,1.871,0,0,1,.008,1.293c-.243.74-.065,1.016-.065,1.016L21.3,2.222,20.8,4.31a7.089,7.089,0,0,0,.742-.329A2.98,2.98,0,0,0,22.6,2.8a2.206,2.206,0,0,1-.567,1.173c-.518.578-.521.86-.521.86l2.132-.991L22.214,5.51s.556.037.9.018a2.98,2.98,0,0,0,1.46-.6,2.19,2.19,0,0,1-1.02.807c-.716.293-.845.547-.845.547l2.354.033L23.1,7.258s.549.326.86.472a2.937,2.937,0,0,0,1.571.157,2.192,2.192,0,0,1-1.281.23c-.772-.078-1,.087-1,.087L25.3,9.345,23.081,9.32s.353.491.574.75a2.91,2.91,0,0,0,1.359.808,1.775,1.775,0,0,1-1.249-.245,2.875,2.875,0,0,0-.957-.429,2.5,2.5,0,0,0,2.518,1.071,1.156,1.156,0,0,1,.971.514,2.1,2.1,0,0,0-1-1.145c-.689-.258-1.439-.726-1.483-.994l3.076.119L24.44,8.543a5.44,5.44,0,0,0,1.538-.426,1.171,1.171,0,0,1,1.1.06,2.074,2.074,0,0,0-1.384-.619c-.739.053-1.563-.031-1.714-.252l2.685-1.365-2.738.074a5.37,5.37,0,0,0,1.154-1.1,1.174,1.174,0,0,1,1-.459,2.088,2.088,0,0,0-1.516.11c-.615.381-1.291.685-1.546.575l.014-.013L24.92,2.8l-2.43,1.26a5.382,5.382,0,0,0,.555-1.494,1.146,1.146,0,0,1,.7-.848,2.061,2.061,0,0,0-1.32.755c-.391.623-.876,1.2-1.149,1.191l.78-2.934-1.8,2.223a2.4,2.4,0,0,0,.07-1.756,1.122,1.122,0,0,1,.3-1.058,2.073,2.073,0,0,0-.906,1.219c-.112.731-.242,1.355-.494,1.453L18.57,0l-.679,2.712c-.25-.112-.368-.609-.443-1.342A2.072,2.072,0,0,0,16.6.106a1.135,1.135,0,0,1,.251,1.074,2.6,2.6,0,0,0-.06,1.652L15.05.7l.782,2.936c-.272.012-.758-.56-1.15-1.186a2.082,2.082,0,0,0-1.318-.76,1.174,1.174,0,0,1,.7.849,5.411,5.411,0,0,0,.556,1.5l-2.43-1.263,1.892,2.321.011.017c-.249.11-.928-.193-1.542-.581a2.082,2.082,0,0,0-1.517-.107,1.172,1.172,0,0,1,1,.461,5.387,5.387,0,0,0,1.154,1.105L10.445,5.91,13.13,7.275c-.154.225-.975.3-1.711.252m5.417-4.593,0,.009-.035-.1a.709.709,0,0,0,.037.09" fill="#000" fill-rule="evenodd"/>
    <path id="Path_31" data-name="Path 31" d="M17.732,7.518l.033,0h.027l.025-.013.017-.01.014-.006.006-.01,0-.009v-.01l0-.01-.006-.012-.007-.006-.016-.011-.033-.022-.034-.026-.131-.074-.132-.066-.132-.051-.129-.041L17.108,7.1l-.128-.016-.124-.014-.125-.008h-.124l-.124.008-.114.014-.113.016-.113.025-.11.032-.1.031-.1.034-.1.037-.089.044-.084.04-.086.041-.08.042-.068.039-.071.046-.061.038-.1.063-.081.063-.04.035-.017.015v.01l.009.01.016.007.012,0h.032l.023,0,.027-.007.032-.01.032-.01.04-.016.039-.034.053-.042.066-.035.075-.037.088-.046.093-.042.1-.043.112-.039.1-.031.122-.038.112-.031.122-.025.123-.018.117-.01.059,0,.059-.009.054.009h.055l.073.008.069.017.064.013.074.027.132.047.123.06.06.024.065.022.06.021.055.024.054.014.061.007H17.7Z" fill="#000" fill-rule="evenodd"/>
    <path id="Path_32" data-name="Path 32" d="M17.676,7.953l.022-.012-.112-.069-.1-.061-.11-.045-.106-.045-.107-.029-.107-.028-.1-.017-.1-.011-.106-.006-.1,0-.092.009-.1.013-.1.009-.09.025-.091.025-.079.025-.084.027-.079.027-.072.03-.073.034-.124.062-.106.062-.151.1-.056.038V8.13h.01l.009.013h.021l.036-.006.041-.007.056-.021.039-.028.037-.03.056-.026L15.71,8l.069-.027.073-.031.081-.032.085-.029.091-.03.088-.02.1-.02.1-.02.094-.015.093-.007.09-.005.087.005.067.006.075,0,.064.022.062.021.127.043.12.044.058.019.053.018.055.016.055.007.049.006h.055l.025-.006.028,0Z" fill="#000" fill-rule="evenodd"/>
    <path id="Path_33" data-name="Path 33" d="M17.453,8.154l-.089-.072-.1-.063-.1-.049-.1-.042-.1-.032-.1-.024-.095-.014-.093-.011h-.094l-.095.009-.089,0-.088.021-.083.022-.09.026-.076.03-.082.028-.075.031-.068.03-.069.039-.062.032-.059.036-.047.031-.093.065-.063.046-.044.036-.014.009.058.031.069.036.1.042.1.046.116.04.125.037.065.013.072.017.072.018.082.017.073,0,.083.01.078,0h.167l.084-.006.087-.009.093-.015L17,8.6l.092-.017.091-.031.089-.028.095-.042.092-.044.093-.047.093-.062-.093-.095ZM16.575,8l.034.006.032.009.025.014.023.016.021.029.015.033.009.021.006.033-.006.038-.009.03-.015.028-.021.025-.023.019-.025.012-.032.014-.034,0-.03,0-.033-.014L16.483,8.3l-.022-.019-.019-.025-.014-.028-.014-.03V8.13l.014-.021.014-.033.019-.029.022-.016.029-.014.033-.009Zm-.353.544L16.16,8.54,16.1,8.527l-.062-.013-.1-.037-.1-.028-.091-.036-.07-.033-.064-.03-.046-.023.046-.036.134-.09.091-.059.113-.053.059-.023.064-.029.018-.006,0,.016-.007.039,0,.04v.069l0,.03.007.032,0,.028,0,.028.014.028.014.031.01.022.012.03.015.025.016.019.021.025.02.021.022.017.02.018,0,0Zm.634-.1-.026.027-.03.025-.036.021-.033.013-.042.013-.035.006-.04.009h-.079l-.04-.009-.034-.006-.036-.013-.036-.013-.033-.021-.031-.025L16.3,8.441l-.033-.028-.021-.033-.021-.03-.016-.035L16.2,8.281l-.005-.039L16.186,8.2l-.007-.041.007-.042.011-.055.015-.046.011-.027.057-.02.066-.012.082-.013.079-.014h.02l-.02.008-.024.01-.022.009-.016.012-.02.012L16.405,8l-.013.013-.013.025-.018.015-.006.025-.009.019-.007.023-.006.024v.053l.006.018.007.024.009.026.006.021.018.016.013.02.013.018.02.012.02.016.016.014.022.009.024.007.02,0,.023.007h.05l.024-.007.024,0,.018-.007.022-.009.021-.014.022-.016.018-.012.011-.018.014-.02.009-.016.017-.021.006-.026.009-.024v-.1L16.806,8.1,16.8,8.076l-.017-.025-.009-.015-.014-.025L16.749,8l-.018-.016-.022-.012-.021-.012-.022-.009-.018-.01-.024-.008h.04l.08.008.086.01.076.021.013,0,.006.007L16.934,8l0,.023.018.022.01.033,0,.029,0,.021V8.2l0,.041-.016.039-.012.034-.013.035-.023.03-.026.033Zm.543-.075-.076.033-.083.042-.073.03-.084.025-.076.02-.08.024-.029,0,.027-.028.043-.039L17,8.433l.023-.053.026-.048.018-.051.009-.056V8.118l-.009-.038,0-.043-.007-.018.019.006.087.041.073.052.089.056.076.068.085.078Z" fill="#000" fill-rule="evenodd"/>
    <path id="Path_34" data-name="Path 34" d="M21.8,7.581l.055.034.038.032.04.017.037.016.026.012.027.008.02,0h.035l.012,0,.018-.008.005-.012,0-.005V7.664L22.1,7.655l-.053-.04-.074-.05L21.87,7.49l-.057-.039-.064-.039-.075-.039L21.6,7.328l-.088-.037-.083-.046-.089-.036-.1-.042-.1-.035-.107-.03-.11-.029-.105-.024L20.7,7.034l-.114-.017-.12-.008-.123,0-.125.007-.127.014-.125.022-.129.032-.133.046-.133.047-.127.063-.13.076-.04.019-.03.026-.013.011,0,.01-.01.016,0,0V7.41l0,.009.01.009.009.006.016.011.024,0,.031.008.031.007h.029l.028,0h.03l.025,0,.057-.012.058-.011.055-.021.055-.022.066-.024.062-.026.123-.053.135-.052.069-.023.067-.012.068-.017.072-.006.053-.007H20.5l.058.007.12.008.114.021.124.028.118.026.116.04.114.037.1.035.106.04.091.037.091.044.074.045Z" fill="#000" fill-rule="evenodd"/>
    <path id="Path_35" data-name="Path 35" d="M21.694,8.082l.015-.006,0-.01,0,0-.055-.044-.153-.095-.11-.065L21.278,7.8l-.07-.026-.075-.034-.08-.035-.078-.021-.083-.026L20.8,7.631l-.09-.018L20.618,7.6l-.1-.011-.094-.011h-.1l-.106.008-.1.012-.1.013-.108.027-.107.031-.107.047-.113.05-.1.054-.108.07.027.007.028.009.023,0,.029,0h.051l.051,0,.054-.009.057-.016.056-.021.06-.014.114-.043.126-.04.062-.025.069-.008.07-.016.067-.011h.175l.1.014.1.018.094.015.088.022.094.023.089.028.086.025.082.032.07.028.071.034.055.029L21.465,8l.043.027.035.02.055.021.047.016.029,0Z" fill="#000" fill-rule="evenodd"/>
    <path id="Path_36" data-name="Path 36" d="M21.46,8.13l-.052-.036-.06-.032-.063-.037-.066-.031-.07-.035-.071-.032L21,7.9l-.075-.031-.086-.026-.088-.017-.09-.021L20.568,7.8l-.093,0h-.1l-.092.009-.1.014-.1.022L20,7.871l-.1.044-.1.049-.1.061-.09.069-.1.088-.092.1.092.053.092.047.094.046.094.043.089.035.093.024.088.022.09.022.093.01.084.011h.333l.082-.006.079-.011.067-.011.075-.018.074-.012.062-.018.133-.039.12-.039.094-.044.093-.041.069-.038.061-.03-.061-.043Zm-.971-.181.034,0,.033.006.028.013L20.607,8l.019.021.013.027.012.031,0,.033,0,.032-.012.026-.013.033-.019.025-.023.017-.028.015-.033.008-.034.009-.033-.009-.03-.008-.032-.015-.02-.017L20.358,8.2l-.016-.033-.008-.026,0-.032,0-.033.008-.031.016-.027L20.374,8l.02-.025.032-.013.03-.006Zm-.353.528-.074-.016-.079-.02-.076-.028-.08-.034L19.75,8.34,19.669,8.3l-.08-.041.08-.078.081-.067.084-.055.079-.053L20,7.969l.018-.01-.009.022L20,8.025l0,.04v.1l0,.032.006.03.013.054.025.053.028.047.033.043.036.039.019.022Zm.6-.07-.025.027-.034.015-.036.019-.036.015-.036.013h-.044l-.04.007-.04-.007h-.038l-.037-.013-.036-.015-.033-.019-.034-.015-.031-.027-.031-.028-.02-.026-.021-.024-.024-.038-.014-.034-.014-.032-.009-.041L20.1,8.148V8.08l.007-.034,0-.021L20.114,8l.013-.028,0-.023.014-.028,0-.006.012,0,.08-.015.085-.015.08-.007h.063l-.023,0-.023.005-.028.006-.017.016-.019.006-.016.015-.017.018-.018.018-.014.013L20.281,8l-.01.02-.008.019-.006.026,0,.024V8.13l0,.024.006.028.008.018.01.025.012.017.014.02.018.017.017.016.016.017.019.007.017.013.028.005.023,0h.093l.023,0,.025-.005.021-.013.016-.007.022-.017.013-.016.019-.017.014-.02.015-.017.009-.025.008-.018,0-.028.007-.024V8.086l-.007-.024,0-.026-.008-.019L20.706,8l-.015-.025-.014-.013-.019-.018-.013-.018-.022-.015L20.607,7.9l-.021-.016-.025-.006-.023-.005h.03l.071.011.079.016.075.016.047.012.018.029.015.048.01.044.005.058-.005.039,0,.036-.014.041-.011.032-.016.034-.019.038-.022.024-.023.026Zm.714-.116-.06.035-.078.027-.086.035-.095.034-.109.027-.06.019-.06.009-.059.019L20.8,8.5l.038-.027.039-.041.033-.055.03-.042.023-.054.015-.058.009-.025.005-.033V8.136l0-.027,0-.042V8.031l-.006-.037-.008-.022L21,7.981l.063.026.062.028.1.054.1.052.127.089.049.035Z" fill="#000" fill-rule="evenodd"/>
    <path id="Path_37" data-name="Path 37" d="M12.056,47.174a2.385,2.385,0,0,0,1.711.985,4.836,4.836,0,0,0-.41-1.476c-.3-.49-1.265-1.3-1.514-1.782a2.957,2.957,0,0,0,.213,2.273" fill="#000" fill-rule="evenodd"/>
    <path id="Path_38" data-name="Path 38" d="M13.98,48.911a5.855,5.855,0,0,0-1.806-.419c-.69.031-2.107.6-2.768.579a3.588,3.588,0,0,0,2.538,1.088,2.887,2.887,0,0,0,2.036-1.248" fill="#000" fill-rule="evenodd"/>
    <path id="Path_39" data-name="Path 39" d="M9.493,45.4a2.53,2.53,0,0,0,1.528,1.426,5.109,5.109,0,0,0-.069-1.621c-.187-.575-.993-1.639-1.134-2.2a3.143,3.143,0,0,0-.325,2.4" fill="#000" fill-rule="evenodd"/>
    <path id="Path_40" data-name="Path 40" d="M11.16,47.459a5.7,5.7,0,0,0-1.636-.793c-.667-.121-2.145.11-2.773-.05a3.511,3.511,0,0,0,2.191,1.593,2.83,2.83,0,0,0,2.218-.75" fill="#000" fill-rule="evenodd"/>
    <path id="Path_41" data-name="Path 41" d="M7.149,43.145a2.531,2.531,0,0,0,1.324,1.618,5.124,5.124,0,0,0,.149-1.616c-.109-.6-.767-1.757-.83-2.332a3.13,3.13,0,0,0-.643,2.33" fill="#000" fill-rule="evenodd"/>
    <path id="Path_42" data-name="Path 42" d="M8.613,45.36a5.721,5.721,0,0,0-1.522-.995c-.647-.205-2.141-.164-2.743-.4-.194-.076.773,1.494,1.969,1.86a2.832,2.832,0,0,0,2.3-.462" fill="#000" fill-rule="evenodd"/>
    <path id="Path_43" data-name="Path 43" d="M6.337,42.2a5.1,5.1,0,0,0,.422-1.566c-.006-.6-.455-1.863-.419-2.439a3.129,3.129,0,0,0-1.031,2.186A2.527,2.527,0,0,0,6.337,42.2" fill="#000" fill-rule="evenodd"/>
    <path id="Path_44" data-name="Path 44" d="M6.476,42.8A5.733,5.733,0,0,0,5.1,41.611c-.613-.29-2.1-.451-2.666-.769a3.522,3.522,0,0,0,1.7,2.108A2.834,2.834,0,0,0,6.476,42.8" fill="#000" fill-rule="evenodd"/>
    <path id="Path_45" data-name="Path 45" d="M5.317,37.949c.121-.593-.051-1.917.106-2.473A3.124,3.124,0,0,0,3.953,37.4a2.526,2.526,0,0,0,.619,1.995,5.108,5.108,0,0,0,.745-1.441" fill="#000" fill-rule="evenodd"/>
    <path id="Path_46" data-name="Path 46" d="M4.711,39.992a5.715,5.715,0,0,0-1.152-1.406c-.555-.39-1.994-.8-2.5-1.21a3.515,3.515,0,0,0,1.319,2.366,2.834,2.834,0,0,0,2.329.25" fill="#000" fill-rule="evenodd"/>
    <path id="Path_47" data-name="Path 47" d="M4.535,35.024c.2-.572.193-1.907.421-2.439.071-.171-1.351.657-1.7,1.715a2.528,2.528,0,0,0,.36,2.059,5.124,5.124,0,0,0,.923-1.335" fill="#000" fill-rule="evenodd"/>
    <path id="Path_48" data-name="Path 48" d="M3.406,36.961a5.714,5.714,0,0,0-.871-1.6c-.473-.486-1.81-1.156-2.229-1.651a3.522,3.522,0,0,0,.858,2.57,2.831,2.831,0,0,0,2.242.677" fill="#000" fill-rule="evenodd"/>
    <path id="Path_49" data-name="Path 49" d="M2.661,33.539a5.734,5.734,0,0,0-.615-1.711C1.655,31.275.435,30.407.1,29.854a3.508,3.508,0,0,0,.451,2.67,2.836,2.836,0,0,0,2.111,1.015" fill="#000" fill-rule="evenodd"/>
    <path id="Path_50" data-name="Path 50" d="M2.776,33.081a5.1,5.1,0,0,0,1.142-1.152c.295-.529.526-1.844.843-2.327a3.135,3.135,0,0,0-1.978,1.389,2.525,2.525,0,0,0-.007,2.09" fill="#000" fill-rule="evenodd"/>
    <path id="Path_51" data-name="Path 51" d="M2.461,30.261a5.736,5.736,0,0,0-.3-1.793c-.29-.613-1.336-1.682-1.571-2.286a3.513,3.513,0,0,0-.024,2.709,2.833,2.833,0,0,0,1.9,1.37" fill="#000" fill-rule="evenodd"/>
    <path id="Path_52" data-name="Path 52" d="M2.757,29.695A5.124,5.124,0,0,0,3.97,28.618c.327-.51.642-1.807.988-2.269A3.128,3.128,0,0,0,2.9,27.609a2.53,2.53,0,0,0-.139,2.086" fill="#000" fill-rule="evenodd"/>
    <path id="Path_53" data-name="Path 53" d="M2.629,26.674a5.417,5.417,0,0,0,.043-1.719c-.157-.621-.935-1.8-1.043-2.406a3.323,3.323,0,0,0-.514,2.509,2.676,2.676,0,0,0,1.514,1.616" fill="#000" fill-rule="evenodd"/>
    <path id="Path_54" data-name="Path 54" d="M3.1,26.07a4.268,4.268,0,0,0,1.216-.588c.377-.334.923-1.3,1.3-1.594a2.61,2.61,0,0,0-1.937.543A2.108,2.108,0,0,0,3.1,26.07" fill="#000" fill-rule="evenodd"/>
    <path id="Path_55" data-name="Path 55" d="M3.449,23.712a5.716,5.716,0,0,0,.425-1.767c-.025-.678-.566-2.073-.544-2.72A3.513,3.513,0,0,0,2.241,21.7a2.834,2.834,0,0,0,1.208,2.007" fill="#000" fill-rule="evenodd"/>
    <path id="Path_56" data-name="Path 56" d="M6.7,20.719a2.671,2.671,0,0,0-1.983.556,2.151,2.151,0,0,0-.6,1.677,4.365,4.365,0,0,0,1.244-.6c.386-.341.944-1.332,1.336-1.631" fill="#000" fill-rule="evenodd"/>
    <path id="Path_57" data-name="Path 57" d="M5.475,18.921c.178-.654.075-2.147.288-2.759a3.514,3.514,0,0,0-1.776,2.046,2.835,2.835,0,0,0,.557,2.275,5.734,5.734,0,0,0,.931-1.562" fill="#000" fill-rule="evenodd"/>
    <path id="Path_58" data-name="Path 58" d="M5.236,20.17a3.767,3.767,0,0,0,1.178-.221c.4-.2,1.093-.9,1.489-1.061a2.317,2.317,0,0,0-1.786.014,1.868,1.868,0,0,0-.881,1.268" fill="#000" fill-rule="evenodd"/>
    <path id="Path_59" data-name="Path 59" d="M7.786,17.006A1.628,1.628,0,0,0,6.9,18.021a3.3,3.3,0,0,0,1.041-.08c.367-.133,1.033-.676,1.392-.778a2.021,2.021,0,0,0-1.549-.157" fill="#000" fill-rule="evenodd"/>
    <path id="Path_60" data-name="Path 60" d="M7.513,16.163c.175-.518.166-1.725.368-2.207.065-.155-1.217.6-1.531,1.559a2.29,2.29,0,0,0,.336,1.86,4.6,4.6,0,0,0,.827-1.212" fill="#000" fill-rule="evenodd"/>
    <path id="Path_61" data-name="Path 61" d="M10.956,15.491a2.023,2.023,0,0,0-1.549-.157,1.627,1.627,0,0,0-.884,1.014,3.3,3.3,0,0,0,1.042-.079c.366-.133,1.033-.676,1.391-.778" fill="#000" fill-rule="evenodd"/>
    <path id="Path_62" data-name="Path 62" d="M9.258,14.552c.147-.435.139-1.447.308-1.85.054-.13-1.019.5-1.283,1.307a1.916,1.916,0,0,0,.282,1.558,3.85,3.85,0,0,0,.693-1.015" fill="#000" fill-rule="evenodd"/>
    <path id="Path_63" data-name="Path 63" d="M12.755,12.887a2.72,2.72,0,0,0-2.09.214,2.195,2.195,0,0,0-.893,1.582,4.436,4.436,0,0,0,1.355-.389c.448-.276,1.182-1.175,1.628-1.407" fill="#000" fill-rule="evenodd"/>
    <path id="Path_64" data-name="Path 64" d="M12.53,51.881c.456-.3,1.7-.52,2.2-.8A4.851,4.851,0,0,0,15.815,50a2.389,2.389,0,0,0-1.975.009,2.964,2.964,0,0,0-1.31,1.87" fill="#000" fill-rule="evenodd"/>
    <path id="Path_65" data-name="Path 65" d="M23.6,46.682a4.827,4.827,0,0,0-.409,1.477,2.387,2.387,0,0,0,1.71-.986,2.957,2.957,0,0,0,.213-2.273c-.249.486-1.218,1.293-1.514,1.782" fill="#000" fill-rule="evenodd"/>
    <path id="Path_66" data-name="Path 66" d="M24.781,48.492a5.824,5.824,0,0,0-1.806.419,2.888,2.888,0,0,0,2.036,1.247,3.579,3.579,0,0,0,2.538-1.088c-.66.017-2.077-.547-2.768-.578" fill="#000" fill-rule="evenodd"/>
    <path id="Path_67" data-name="Path 67" d="M27.137,43c-.139.561-.946,1.625-1.134,2.2a5.123,5.123,0,0,0-.068,1.62A2.526,2.526,0,0,0,27.463,45.4a3.131,3.131,0,0,0-.326-2.4" fill="#000" fill-rule="evenodd"/>
    <path id="Path_68" data-name="Path 68" d="M27.431,46.666a5.717,5.717,0,0,0-1.636.793,2.831,2.831,0,0,0,2.219.75,3.5,3.5,0,0,0,2.19-1.593c-.627.16-2.1-.071-2.773.05" fill="#000" fill-rule="evenodd"/>
    <path id="Path_69" data-name="Path 69" d="M29.163,40.815c-.063.575-.72,1.737-.83,2.332a5.124,5.124,0,0,0,.149,1.616,2.531,2.531,0,0,0,1.324-1.618,3.137,3.137,0,0,0-.643-2.33" fill="#000" fill-rule="evenodd"/>
    <path id="Path_70" data-name="Path 70" d="M29.864,44.365a5.709,5.709,0,0,0-1.521.995,2.834,2.834,0,0,0,2.3.462c1.2-.367,2.162-1.936,1.969-1.86-.6.239-2.1.2-2.744.4" fill="#000" fill-rule="evenodd"/>
    <path id="Path_71" data-name="Path 71" d="M31.647,40.383A3.132,3.132,0,0,0,30.616,38.2c.035.577-.414,1.834-.42,2.439a5.122,5.122,0,0,0,.423,1.566,2.527,2.527,0,0,0,1.028-1.819" fill="#000" fill-rule="evenodd"/>
    <path id="Path_72" data-name="Path 72" d="M34.517,40.842c-.564.318-2.051.479-2.665.769A5.733,5.733,0,0,0,30.479,42.8a2.833,2.833,0,0,0,2.337.148,3.514,3.514,0,0,0,1.7-2.108" fill="#000" fill-rule="evenodd"/>
    <path id="Path_73" data-name="Path 73" d="M33,37.4a3.139,3.139,0,0,0-1.471-1.919c.157.557-.016,1.881.107,2.473a5.1,5.1,0,0,0,.744,1.442,2.528,2.528,0,0,0,.62-2" fill="#000" fill-rule="evenodd"/>
    <path id="Path_74" data-name="Path 74" d="M35.893,37.376c-.5.409-1.941.82-2.5,1.209a5.744,5.744,0,0,0-1.151,1.407,2.834,2.834,0,0,0,2.329-.25,3.51,3.51,0,0,0,1.319-2.366" fill="#000" fill-rule="evenodd"/>
    <path id="Path_75" data-name="Path 75" d="M33.7,34.3c-.353-1.058-1.776-1.886-1.7-1.716.226.532.224,1.868.42,2.44a5.129,5.129,0,0,0,.922,1.335A2.527,2.527,0,0,0,33.7,34.3" fill="#000" fill-rule="evenodd"/>
    <path id="Path_76" data-name="Path 76" d="M36.649,33.714c-.418.495-1.755,1.165-2.229,1.651a5.742,5.742,0,0,0-.871,1.6,2.833,2.833,0,0,0,2.242-.678,3.514,3.514,0,0,0,.858-2.569" fill="#000" fill-rule="evenodd"/>
    <path id="Path_77" data-name="Path 77" d="M34.909,31.828a5.717,5.717,0,0,0-.616,1.711A2.834,2.834,0,0,0,36.4,32.524a3.5,3.5,0,0,0,.452-2.67c-.337.553-1.555,1.421-1.947,1.974" fill="#000" fill-rule="evenodd"/>
    <path id="Path_78" data-name="Path 78" d="M34.173,30.991A3.133,3.133,0,0,0,32.195,29.6c.316.483.548,1.8.842,2.327a5.122,5.122,0,0,0,1.143,1.152,2.525,2.525,0,0,0-.007-2.09" fill="#000" fill-rule="evenodd"/>
    <path id="Path_79" data-name="Path 79" d="M34.494,30.261a2.833,2.833,0,0,0,1.9-1.37,3.51,3.51,0,0,0-.025-2.709c-.234.6-1.28,1.673-1.57,2.286a5.736,5.736,0,0,0-.3,1.793" fill="#000" fill-rule="evenodd"/>
    <path id="Path_80" data-name="Path 80" d="M32,26.349c.346.462.662,1.76.989,2.269A5.124,5.124,0,0,0,34.2,29.695a2.528,2.528,0,0,0-.139-2.085A3.135,3.135,0,0,0,32,26.349" fill="#000" fill-rule="evenodd"/>
    <path id="Path_81" data-name="Path 81" d="M34.327,26.674a2.679,2.679,0,0,0,1.514-1.616,3.321,3.321,0,0,0-.515-2.509c-.108.6-.885,1.785-1.042,2.406a5.417,5.417,0,0,0,.043,1.719" fill="#000" fill-rule="evenodd"/>
    <path id="Path_82" data-name="Path 82" d="M31.335,23.888c.382.292.928,1.26,1.306,1.594a4.255,4.255,0,0,0,1.215.588,2.1,2.1,0,0,0-.584-1.639,2.609,2.609,0,0,0-1.937-.543" fill="#000" fill-rule="evenodd"/>
    <path id="Path_83" data-name="Path 83" d="M34.713,21.706a3.513,3.513,0,0,0-1.088-2.481c.022.648-.519,2.043-.544,2.72a5.717,5.717,0,0,0,.425,1.768,2.834,2.834,0,0,0,1.207-2.007" fill="#000" fill-rule="evenodd"/>
    <path id="Path_84" data-name="Path 84" d="M30.261,20.719c.392.3.95,1.29,1.336,1.631a4.366,4.366,0,0,0,1.245.6,2.154,2.154,0,0,0-.6-1.677,2.671,2.671,0,0,0-1.983-.556" fill="#000" fill-rule="evenodd"/>
    <path id="Path_85" data-name="Path 85" d="M32.412,20.483a2.831,2.831,0,0,0,.557-2.275,3.51,3.51,0,0,0-1.776-2.045c.214.611.111,2.1.288,2.758a5.734,5.734,0,0,0,.931,1.562" fill="#000" fill-rule="evenodd"/>
    <path id="Path_86" data-name="Path 86" d="M29.052,18.888c.4.161,1.088.863,1.49,1.061a3.767,3.767,0,0,0,1.177.221,1.868,1.868,0,0,0-.881-1.268,2.318,2.318,0,0,0-1.786-.014" fill="#000" fill-rule="evenodd"/>
    <path id="Path_87" data-name="Path 87" d="M27.773,17.163c.357.1,1.024.645,1.39.778a3.308,3.308,0,0,0,1.042.08,1.628,1.628,0,0,0-.884-1.015,2.015,2.015,0,0,0-1.548.157" fill="#000" fill-rule="evenodd"/>
    <path id="Path_88" data-name="Path 88" d="M30.268,17.375a2.285,2.285,0,0,0,.336-1.86c-.314-.958-1.595-1.714-1.53-1.559.2.482.192,1.689.367,2.207a4.628,4.628,0,0,0,.827,1.212" fill="#000" fill-rule="evenodd"/>
    <path id="Path_89" data-name="Path 89" d="M28.432,16.348a1.627,1.627,0,0,0-.884-1.014A2.011,2.011,0,0,0,26,15.491c.357.1,1.025.644,1.391.778a3.291,3.291,0,0,0,1.041.079" fill="#000" fill-rule="evenodd"/>
    <path id="Path_90" data-name="Path 90" d="M28.389,15.567a1.913,1.913,0,0,0,.282-1.558c-.263-.8-1.337-1.437-1.283-1.308.17.4.162,1.416.308,1.851a3.894,3.894,0,0,0,.693,1.015" fill="#000" fill-rule="evenodd"/>
    <path id="Path_91" data-name="Path 91" d="M26.292,13.1a2.73,2.73,0,0,0-2.09-.214c.445.233,1.179,1.132,1.627,1.408a4.458,4.458,0,0,0,1.356.388,2.2,2.2,0,0,0-.893-1.582" fill="#000" fill-rule="evenodd"/>
    <path id="Path_92" data-name="Path 92" d="M21.219,50a4.828,4.828,0,0,0,1.087,1.08c.5.279,1.741.5,2.2.8a2.963,2.963,0,0,0-1.311-1.87A2.387,2.387,0,0,0,21.219,50" fill="#000" fill-rule="evenodd"/>
  </g>
</svg>
