<?xml version="1.0" encoding="iso-8859-1"?>
<!DOCTYPE svg PUBLIC "-//W3C//DTD SVG 1.0//EN" "http://www.w3.org/TR/2001/ REC-SVG-20010904/DTD/svg10.dtd">
<svg height="36" width="36" version="1.1" xmlns="http://www.w3.org/2000/svg" xmlns:xlink="http://www.w3.org/1999/xlink">
  <defs>
    <linearGradient id="button_surface" gradientUnits="objectBoundingBox"
    x1="1" x2="1" y1="0" y2="1">
      <stop stop-color="rgba(255, 64, 0, 0.7)" offset="0"/>
      <stop stop-color="rgba(255, 152, 0, 1)" offset="0.67"/>
    </linearGradient>
    <filter id="virtual_light" filterUnits="objectBoundingBox"
      x="-0.1" y="-0.1" width="1.2" height="1.2">
      <feGaussianBlur in="SourceAlpha" stdDeviation="5" result="alpha_blur"/>
      <feSpecularLighting in="alpha_blur" surfaceScale="2" specularConstant="0.6"
        specularExponent="250" lighting-color="#ffffff" result="spec_light">
        <fePointLight x="160" y="150" z="400"/>
      </feSpecularLighting>
      <feComposite in="SourceGraphic" in2="spec_light" operator="out"/>
    </filter>
  </defs>
  <g transform="scale(0.13, 0.13)">
    <path d="M7.954,226.53c-2.23,4.623-2.295,8.072-0.609,9.915c3.911,4.275,15.926-3.905,23.323-9.051   l58.416-40.662c7.397-5.145,20.402-11.835,29.414-11.993c0.897-0.016,1.8-0.011,2.703,0.011c9.007,0.218,21.958,7.016,29.3,12.238   l56.403,40.151c7.343,5.221,19.303,13.473,23.301,9.219c1.74-1.849,1.751-5.33-0.381-9.997L129.648,7.047 c-4.264-9.333-11.335-9.404-15.79-0.163L7.954,226.53z" fill="url(#button_surface)" stroke-width="15" stroke="rgb(255,64,0)" filter="url(#virtual_light)"/>
  </g>
</svg>